<svg xmlns="http://www.w3.org/2000/svg" viewBox="0 0 45.65 52"><defs><style>.cls-1{fill:#45639e;}</style></defs><title>Asset 7flowers</title><g id="Layer_2" data-name="Layer 2"><g id="Layer_1_copy" data-name="Layer 1 copy"><path class="cls-1" d="M33.13,26.73c4.79-2.09,8.73-6.62,12.52-11.61l-.06-.1c-7.55.45-14.66,1.16-19.14,5.68C28.76,14.42,26.22,7,22.94,0h-.12C19.5,7,16.94,14.59,19.4,20.92c-4.83-4-11.9-4.28-19.36-4.13L0,17c3.93,4.39,7.94,8.41,12.52,10.29C7.72,29.36,3.79,33.9,0,38.89L.06,39c7.5-.45,14.56-2.07,19.06-6.52C17,38.69,19.47,45,22.71,52h.12c3.28-7,5.82-13.48,3.51-19.75,4.83,3.93,11.85,4.66,19.27,4.52l0,.05C41.72,32.43,37.71,28.61,33.13,26.73Zm-7.07.32a3.24,3.24,0,1,1-6.48,0h0a3.24,3.24,0,0,1,6.48,0Z"/></g></g></svg>